<?xml version="1.0" encoding="utf-8"?>
<!-- Generator: Adobe Illustrator 15.1.0, SVG Export Plug-In . SVG Version: 6.00 Build 0)  -->
<!DOCTYPE svg PUBLIC "-//W3C//DTD SVG 1.1//EN" "http://www.w3.org/Graphics/SVG/1.1/DTD/svg11.dtd">
<svg version="1.1" id="Layer_1" xmlns="http://www.w3.org/2000/svg" xmlns:xlink="http://www.w3.org/1999/xlink" x="0px" y="0px"
	 width="360px" height="78.871px" viewBox="0 0 360 78.871" enable-background="new 0 0 360 78.871" xml:space="preserve">
<g>
	<g>
		<path fill="#5EBD6D" d="M31.548,70.985C14.152,70.985,0,56.833,0,39.436S14.152,7.886,31.548,7.886s31.548,14.152,31.548,31.549
			S48.944,70.985,31.548,70.985z M31.548,12.028c-15.112,0-27.407,12.295-27.407,27.408c0,15.112,12.294,27.408,27.407,27.408
			c15.111,0,27.407-12.295,27.407-27.408C58.956,24.323,46.66,12.028,31.548,12.028z"/>
	</g>
	<g>
		<path fill="#5EBD6D" d="M25.042,46.288c0.906-0.386,1.679-1.023,2.232-1.839c0.572-0.842,0.873-1.823,0.873-2.841V41.06
			c0-0.674-0.139-1.359-0.404-1.978c-0.384-0.906-1.021-1.678-1.837-2.232c-0.843-0.57-1.823-0.873-2.838-0.873h-8.124
			c-0.199,0-0.385-0.038-0.567-0.114c-0.262-0.11-0.497-0.303-0.657-0.543c-0.166-0.249-0.25-0.522-0.252-0.815v-0.549
			c0.002-0.202,0.04-0.386,0.116-0.566c0.11-0.262,0.303-0.496,0.542-0.659c0.249-0.165,0.523-0.25,0.817-0.25h12.31v-3.608H14.944
			c-0.677,0-1.358,0.14-1.979,0.403c-0.906,0.386-1.678,1.021-2.231,1.838c-0.573,0.842-0.874,1.825-0.872,2.842v0.547
			c0,0.675,0.139,1.359,0.401,1.978c0.385,0.907,1.022,1.679,1.841,2.233c0.84,0.571,1.821,0.872,2.835,0.872h8.124
			c0.199,0.001,0.384,0.039,0.567,0.115c0.262,0.109,0.496,0.302,0.657,0.542c0.167,0.25,0.252,0.523,0.252,0.818v0.547
			c0,0.2-0.037,0.385-0.115,0.567c-0.11,0.263-0.304,0.496-0.542,0.657c-0.25,0.166-0.523,0.251-0.818,0.252H7.95v3.605h15.114
			C23.749,46.688,24.414,46.554,25.042,46.288z"/>
		<path fill="#5EBD6D" d="M40.385,58.746h-3.607V46.688h-2.141c-1.016,0-1.997-0.3-2.837-0.871
			c-0.818-0.554-1.456-1.324-1.839-2.233c-0.265-0.618-0.402-1.302-0.402-1.977V20.126h3.607v21.481
			c0,0.293,0.084,0.568,0.252,0.817c0.161,0.24,0.393,0.434,0.655,0.544c0.182,0.077,0.369,0.114,0.568,0.115h2.137v-5.447
			c0-1.018,0.3-2,0.872-2.841c0.554-0.818,1.327-1.455,2.233-1.84c0.627-0.267,1.292-0.402,1.979-0.402h8.208
			c1.015,0,1.997,0.302,2.836,0.872c0.818,0.554,1.457,1.326,1.841,2.232c0.262,0.62,0.401,1.305,0.401,1.979v3.971
			c0.001,1.018-0.298,2.001-0.872,2.841c-0.554,0.816-1.327,1.454-2.231,1.839c-0.629,0.266-1.292,0.401-1.979,0.401h-8.702v-3.605
			h8.702c0.295-0.001,0.57-0.086,0.818-0.252c0.239-0.162,0.431-0.395,0.542-0.657c0.077-0.184,0.113-0.368,0.115-0.567v-3.973
			c-0.002-0.293-0.086-0.566-0.252-0.817c-0.162-0.239-0.396-0.433-0.658-0.542c-0.181-0.077-0.366-0.114-0.566-0.115h-8.208
			c-0.291,0.002-0.566,0.085-0.814,0.251c-0.239,0.162-0.434,0.395-0.545,0.658c-0.075,0.183-0.113,0.368-0.113,0.567V58.746z"/>
	</g>
</g>
<g>
	<rect x="75.802" fill="#5EBD6D" width="2" height="78.871"/>
</g>
<g>
	<path fill="#5EBD6D" d="M93.104,28.25h10.78c7.996,0,13.457,4.933,13.457,12.33c0,7.397-5.461,12.331-13.457,12.331h-10.78V28.25z
		 M103.672,49.035c5.495,0,9.053-3.346,9.053-8.455c0-5.107-3.558-8.454-9.053-8.454h-5.989v16.909H103.672z"/>
	<path fill="#5EBD6D" d="M119.521,43.505c0-5.637,4.227-9.618,10.004-9.618c5.848,0,10.04,3.98,10.04,9.618
		c0,5.636-4.192,9.652-10.04,9.652C123.748,53.157,119.521,49.141,119.521,43.505z M135.127,43.505c0-3.594-2.396-5.884-5.602-5.884
		c-3.17,0-5.565,2.291-5.565,5.884c0,3.593,2.396,5.882,5.565,5.882C132.731,49.387,135.127,47.098,135.127,43.505z"/>
	<path fill="#5EBD6D" d="M141.536,43.505c0-5.637,4.228-9.618,10.181-9.618c3.664,0,6.588,1.515,8.032,4.368l-3.382,1.973
		c-1.127-1.797-2.818-2.607-4.686-2.607c-3.24,0-5.706,2.255-5.706,5.884c0,3.663,2.466,5.882,5.706,5.882
		c1.868,0,3.559-0.81,4.686-2.607l3.382,1.973c-1.444,2.818-4.368,4.404-8.032,4.404C145.763,53.157,141.536,49.141,141.536,43.505z
		"/>
	<path fill="#5EBD6D" d="M181.059,34.099v18.812h-4.192v-2.396c-1.41,1.727-3.629,2.642-6.06,2.642
		c-4.826,0-8.102-2.642-8.102-8.313V34.099h4.403v10.145c0,3.417,1.622,5.038,4.404,5.038c3.064,0,5.144-1.903,5.144-5.671v-9.511
		H181.059z"/>
	<path fill="#5EBD6D" d="M216.396,42.13v10.781h-4.405V42.694c0-3.347-1.55-4.967-4.227-4.967c-2.888,0-4.897,1.903-4.897,5.637
		v9.547h-4.402V42.694c0-3.347-1.551-4.967-4.228-4.967c-2.925,0-4.897,1.903-4.897,5.637v9.547h-4.403V34.099h4.191v2.395
		c1.411-1.69,3.595-2.606,6.166-2.606c2.747,0,5.037,1.021,6.341,3.136c1.514-1.938,4.05-3.136,7.045-3.136
		C213.225,33.887,216.396,36.459,216.396,42.13z"/>
	<path fill="#5EBD6D" d="M237.705,44.913h-14.761c0.528,2.747,2.818,4.509,6.095,4.509c2.113,0,3.769-0.669,5.107-2.044l2.361,2.713
		c-1.691,2.008-4.333,3.065-7.574,3.065c-6.307,0-10.393-4.052-10.393-9.652c0-5.603,4.123-9.618,9.722-9.618
		c5.497,0,9.514,3.84,9.514,9.723C237.776,43.962,237.74,44.491,237.705,44.913z M222.91,41.99h10.673
		c-0.353-2.714-2.431-4.58-5.32-4.58C225.41,37.41,223.332,39.241,222.91,41.99z"/>
	<path fill="#5EBD6D" d="M259.12,42.13v10.781h-4.404V42.694c0-3.347-1.654-4.967-4.474-4.967c-3.135,0-5.248,1.903-5.248,5.671
		v9.512h-4.403V34.099h4.192v2.431c1.443-1.727,3.734-2.642,6.481-2.642C255.776,33.887,259.12,36.459,259.12,42.13z"/>
	<path fill="#5EBD6D" d="M274.618,51.89c-1.059,0.844-2.642,1.267-4.229,1.267c-4.122,0-6.48-2.185-6.48-6.341v-9.054h-3.1v-3.522
		h3.1v-4.298h4.402v4.298h5.037v3.522h-5.037v8.947c0,1.833,0.916,2.819,2.605,2.819c0.916,0,1.797-0.247,2.468-0.775L274.618,51.89
		z"/>
	<path fill="#5EBD6D" d="M293.286,41.884v11.027h-4.155v-2.289c-1.059,1.62-3.102,2.535-5.919,2.535
		c-4.299,0-7.011-2.36-7.011-5.637c0-3.134,2.112-5.601,7.82-5.601h4.86v-0.282c0-2.571-1.549-4.085-4.685-4.085
		c-2.113,0-4.298,0.704-5.708,1.867l-1.726-3.207c2.009-1.549,4.933-2.324,7.962-2.324
		C290.151,33.887,293.286,36.459,293.286,41.884z M288.882,47.026v-2.183h-4.542c-2.995,0-3.808,1.126-3.808,2.5
		c0,1.585,1.34,2.607,3.594,2.607C286.277,49.951,288.145,48.965,288.882,47.026z"/>
	<path fill="#5EBD6D" d="M308.82,51.89c-1.057,0.844-2.643,1.267-4.228,1.267c-4.121,0-6.482-2.185-6.482-6.341v-9.054h-3.101
		v-3.522h3.101v-4.298h4.403v4.298h5.038v3.522h-5.038v8.947c0,1.833,0.916,2.819,2.607,2.819c0.916,0,1.795-0.247,2.465-0.775
		L308.82,51.89z"/>
	<path fill="#5EBD6D" d="M311.142,28.356c0-1.48,1.198-2.642,2.821-2.642c1.618,0,2.817,1.092,2.817,2.536
		c0,1.55-1.163,2.748-2.817,2.748C312.34,30.998,311.142,29.836,311.142,28.356z M311.743,34.099h4.401v18.812h-4.401V34.099z"/>
	<path fill="#5EBD6D" d="M318.962,43.505c0-5.637,4.227-9.618,10.004-9.618c5.85,0,10.041,3.98,10.041,9.618
		c0,5.636-4.191,9.652-10.041,9.652C323.188,53.157,318.962,49.141,318.962,43.505z M334.567,43.505
		c0-3.594-2.396-5.884-5.602-5.884c-3.17,0-5.564,2.291-5.564,5.884c0,3.593,2.395,5.882,5.564,5.882
		C332.172,49.387,334.567,47.098,334.567,43.505z"/>
	<path fill="#5EBD6D" d="M360,42.13v10.781h-4.403V42.694c0-3.347-1.655-4.967-4.474-4.967c-3.136,0-5.249,1.903-5.249,5.671v9.512
		h-4.402V34.099h4.191v2.431c1.443-1.727,3.734-2.642,6.48-2.642C356.653,33.887,360,36.459,360,42.13z"/>
</g>
</svg>
